<?xml version="1.0" encoding="utf-8"?>
<!-- Generator: Adobe Illustrator 18.0.0, SVG Export Plug-In . SVG Version: 6.00 Build 0)  -->
<!DOCTYPE svg PUBLIC "-//W3C//DTD SVG 1.1//EN" "http://www.w3.org/Graphics/SVG/1.1/DTD/svg11.dtd">
<svg version="1.1" id="Слой_1" xmlns="http://www.w3.org/2000/svg" xmlns:xlink="http://www.w3.org/1999/xlink" x="0px" y="0px"
	 viewBox="0 0 32.4 18" enable-background="new 0 0 32.4 18" xml:space="preserve">
<g>
	<path fill-rule="evenodd" clip-rule="evenodd" fill="#0058A9" d="M1.7,15.6H0.6V18H0v-6.7h1.9l0,0C2,11.7,2.2,12,2.3,12.4
		c0.1,0.3,0.1,0.7,0.1,1c0,0.3-0.1,0.7-0.2,1.1C2.1,14.8,2,15.2,1.7,15.6L1.7,15.6L1.7,15.6L1.7,15.6z M1.8,13.3
		c0-0.2,0-0.5-0.1-0.7c-0.1-0.2-0.1-0.5-0.3-0.8H0.6v3.3h0.8c0.2-0.3,0.3-0.6,0.3-0.9C1.8,13.9,1.8,13.6,1.8,13.3L1.8,13.3z
		 M4.7,13.7c0.2,0.4,0.4,0.8,0.5,1.2c0.1,0.4,0.2,0.7,0.2,1.1c0,0.3,0,0.6-0.1,1C5.1,17.2,5,17.6,4.8,18l0,0H3v-6.7h0.6v2.4
		L4.7,13.7L4.7,13.7L4.7,13.7z M4.8,16c0-0.3,0-0.6-0.1-0.9c-0.1-0.3-0.2-0.6-0.3-0.9H3.5v3.3h0.9c0.1-0.3,0.2-0.5,0.3-0.8
		C4.7,16.5,4.8,16.2,4.8,16L4.8,16z M6.3,18H5.7v-6.7h0.6L6.3,18L6.3,18L6.3,18z M7.4,11.8v1.9h1.1l0,0c0.2,0.4,0.4,0.8,0.5,1.2
		c0.1,0.4,0.2,0.7,0.2,1.1c0,0.3,0,0.6-0.1,1C9,17.2,8.9,17.6,8.7,18l0,0H6.9v-6.7h2v1.5H8.3v-1H7.4L7.4,11.8z M8.7,16
		c0-0.3,0-0.6-0.1-0.9c-0.1-0.3-0.2-0.6-0.3-0.9H7.4v3.3h0.9c0.1-0.3,0.2-0.5,0.3-0.8C8.6,16.5,8.7,16.2,8.7,16L8.7,16z M12.3,17
		c0,0.2,0,0.3,0,0.5c0,0.2,0,0.3,0,0.5l0,0h-0.6v-0.9c0-0.3,0-0.7,0-1.1c0-0.4,0-0.7-0.1-1.1h-1.2c-0.1,0.7-0.1,1.7-0.1,3.1v0H9.8
		l0,0c0-0.2,0-0.4,0-0.6c0-0.2,0-0.4,0-0.5c0-0.9,0.1-1.8,0.2-2.7c0.1-0.9,0.3-1.9,0.6-2.8l0,0h1l0,0c0.2,1,0.4,1.9,0.6,2.9
		C12.2,15.1,12.3,16,12.3,17L12.3,17z M11.6,14.4c-0.1-0.4-0.1-0.9-0.2-1.3c-0.1-0.4-0.2-0.9-0.3-1.3H11c-0.1,0.4-0.2,0.8-0.3,1.2
		c-0.1,0.4-0.1,0.9-0.2,1.4H11.6L11.6,14.4z M15,18c0-0.2,0-0.4,0-0.6c0-0.2,0-0.4,0-0.5c0-0.6,0.1-1.1,0.2-1.6
		c0.1-0.5,0.3-1,0.5-1.4c-0.2-0.2-0.3-0.4-0.4-0.6c-0.1-0.2-0.1-0.4-0.1-0.6c0-0.4,0.2-0.9,0.6-1.4l0,0h1.7V18h-0.6v-3.8h-0.7
		c-0.2,0.4-0.3,0.8-0.4,1.3c-0.1,0.4-0.1,0.9-0.1,1.4c0,0.1,0,0.3,0,0.5c0,0.2,0,0.4,0,0.6l0,0L15,18L15,18L15,18z M15.7,12.7
		c0,0.3,0.1,0.7,0.4,1h0.7v-1.9H16c-0.1,0.2-0.2,0.3-0.2,0.4C15.7,12.4,15.7,12.5,15.7,12.7L15.7,12.7z M20.4,16.9
		c0,0.3,0,0.6-0.1,1l0,0h-0.6l0,0c0-0.2,0-0.4,0-0.6c0-0.2,0-0.3,0-0.4c0-0.4,0-0.9-0.1-1.3c-0.1-0.5-0.2-0.9-0.4-1.4h-0.8
		c0,0.1,0,0.1,0,0.2c0,0.1,0,0.2,0,0.3c0,1.3,0.1,2.4,0.3,3.3l0,0h-0.6l0,0c-0.1-0.6-0.2-1.2-0.2-1.7c0-0.6-0.1-1.1-0.1-1.6
		s0-1.1,0.1-1.6c0-0.6,0.1-1.1,0.2-1.7l0,0h0.6l0,0c-0.1,0.3-0.1,0.7-0.2,1.1c0,0.4-0.1,0.8-0.1,1.3h0.7c0.2-0.4,0.3-0.8,0.4-1.1
		c0.1-0.4,0.1-0.8,0.1-1.2l0,0h0.6l0,0c0,0.4-0.1,0.9-0.1,1.3c-0.1,0.4-0.2,0.8-0.4,1.2c0.2,0.6,0.4,1.1,0.5,1.7
		C20.3,15.9,20.4,16.5,20.4,16.9L20.4,16.9z M21.5,18c0.1-0.2,0.2-0.4,0.3-0.7c0.1-0.2,0.2-0.5,0.2-0.8c-0.1-0.2-0.2-0.4-0.3-0.6
		c-0.1-0.2-0.2-0.4-0.2-0.6c-0.1-0.2-0.1-0.5-0.2-0.7c-0.1-0.2-0.1-0.5-0.2-0.7c-0.1-0.5-0.2-0.9-0.2-1.4c-0.1-0.5-0.1-0.9-0.1-1.2
		l0,0h0.5l0,0c0,0.2,0,0.3,0,0.5c0,0.2,0,0.4,0.1,0.6c0,0.2,0.1,0.4,0.1,0.6c0,0.2,0.1,0.4,0.1,0.6c0,0.2,0.1,0.4,0.1,0.6
		c0,0.2,0.1,0.4,0.1,0.6c0,0.2,0.1,0.4,0.2,0.5c0.1,0.2,0.1,0.3,0.2,0.4c0-0.2,0.1-0.3,0.1-0.5c0-0.2,0.1-0.4,0.1-0.6
		c0-0.2,0.1-0.4,0.1-0.6c0-0.2,0.1-0.4,0.1-0.6c0-0.2,0.1-0.4,0.1-0.6c0-0.2,0-0.4,0-0.6c0-0.2,0-0.3,0-0.5c0-0.1,0-0.3,0-0.4l0,0
		l0.6,0l0,0c0,0.3,0,0.6,0,0.9c0,0.3,0,0.6-0.1,0.9c0,0.3-0.1,0.6-0.1,0.8c0,0.3-0.1,0.6-0.2,0.8c-0.1,0.3-0.1,0.6-0.2,0.8
		c-0.1,0.3-0.1,0.6-0.2,0.8c-0.1,0.3-0.2,0.6-0.3,0.8c-0.1,0.3-0.2,0.6-0.3,0.8l0,0L21.5,18L21.5,18L21.5,18z M26.3,14.2h-0.5l0,0
		c0-0.9-0.1-1.6-0.2-2.4h-0.2V18h-0.6v-6.2h-0.2c-0.1,0.4-0.1,0.8-0.1,1.2c0,0.4,0,0.8-0.1,1.2l0,0h-0.6l0,0c0-0.9,0.1-1.9,0.2-2.9
		l0,0h2l0,0C26.2,12.3,26.3,13.3,26.3,14.2L26.3,14.2L26.3,14.2L26.3,14.2z M28.8,14.4l0-0.6c0-0.1,0-0.2,0-0.3l0-0.2l-1.2,4l0,0.2
		l0,0.2c0,0.1,0,0.2,0.1,0.3l0,0h-0.6l0,0c-0.1-0.6-0.2-1.2-0.2-1.7c0-0.6-0.1-1.1-0.1-1.6c0-1,0.1-2.2,0.3-3.4l0,0h0.6l0,0
		c0,0.2-0.1,0.4-0.1,0.7c0,0.2-0.1,0.5-0.1,0.7c0,0.3,0,0.5-0.1,0.8c0,0.3,0,0.6,0,0.9c0,0.1,0,0.3,0,0.4c0,0.1,0,0.3,0,0.4
		c0,0.1,0,0.3,0,0.4c0,0.1,0,0.2,0,0.3l1.2-4l0-0.2c0-0.1,0-0.1,0-0.2l0-0.2l0-0.2h0.6l0,0c0,0.3,0.1,0.6,0.1,0.8
		c0,0.3,0.1,0.6,0.1,0.8c0,0.3,0,0.6,0,0.8c0,0.3,0,0.6,0,0.8s0,0.6,0,0.8c0,0.3,0,0.6,0,0.8c0,0.3,0,0.6-0.1,0.8
		c0,0.3-0.1,0.6-0.1,0.8l0,0h-0.6l0,0c0-0.1,0-0.2,0.1-0.3c0-0.1,0-0.3,0.1-0.4c0-0.1,0-0.3,0-0.4c0-0.1,0-0.3,0-0.5
		c0-0.2,0-0.3,0-0.5c0-0.2,0-0.3,0-0.5c0-0.2,0-0.3,0-0.5C28.8,14.7,28.8,14.5,28.8,14.4L28.8,14.4z M31.8,14.4l0-0.6
		c0-0.1,0-0.2,0-0.3l0-0.2l-1.2,4l0,0.2l0,0.2c0,0.1,0,0.2,0.1,0.3l0,0h-0.6l0,0c-0.1-0.6-0.2-1.2-0.2-1.7c0-0.6-0.1-1.1-0.1-1.6
		c0-1,0.1-2.2,0.3-3.4l0,0h0.6l0,0c0,0.2-0.1,0.4-0.1,0.7c0,0.2-0.1,0.5-0.1,0.7c0,0.3,0,0.5-0.1,0.8c0,0.3,0,0.6,0,0.9
		c0,0.1,0,0.3,0,0.4c0,0.1,0,0.3,0,0.4c0,0.1,0,0.3,0,0.4c0,0.1,0,0.2,0,0.3l1.2-4l0-0.2c0-0.1,0-0.1,0-0.2l0-0.2l0-0.2h0.6l0,0
		c0,0.3,0.1,0.6,0.1,0.8c0,0.3,0.1,0.6,0.1,0.8c0,0.3,0,0.6,0,0.8c0,0.3,0,0.6,0,0.8s0,0.6,0,0.8c0,0.3,0,0.6,0,0.8
		c0,0.3,0,0.6-0.1,0.8c0,0.3-0.1,0.6-0.1,0.8l0,0h-0.6l0,0c0-0.1,0-0.2,0.1-0.3c0-0.1,0-0.3,0.1-0.4c0-0.1,0-0.3,0-0.4
		c0-0.1,0-0.3,0-0.5c0-0.2,0-0.3,0-0.5c0-0.2,0-0.3,0-0.5c0-0.2,0-0.3,0-0.5C31.8,14.7,31.8,14.5,31.8,14.4z"/>
	<g>
		<polygon fill-rule="evenodd" clip-rule="evenodd" fill="#00BEF3" points="15.6,2.5 18,0 20.5,2.5 18,4.9 		"/>
		<path fill-rule="evenodd" clip-rule="evenodd" fill="#008DD2" d="M18,4.9l2.4-2.4l2.4,2.4l-2.4,2.4L18,4.9L18,4.9z M20.5,4.3
			c-0.3,0-0.6,0.3-0.6,0.6c0,0.3,0.3,0.6,0.6,0.6c0.3,0,0.6-0.3,0.6-0.6C21.1,4.6,20.8,4.3,20.5,4.3z"/>
		<polygon fill-rule="evenodd" clip-rule="evenodd" fill="#008DD2" points="13.2,4.9 15.6,2.5 18.1,4.9 15.6,7.3 		"/>
		<polygon fill-rule="evenodd" clip-rule="evenodd" fill="#0058A9" points="15.6,7.3 18.1,4.9 20.5,7.3 18.1,9.8 		"/>
		<polygon fill-rule="evenodd" clip-rule="evenodd" fill="#0058A9" points="9.5,4.9 11.3,3.1 13.1,4.9 11.3,6.7 		"/>
		<polygon fill-rule="evenodd" clip-rule="evenodd" fill="#0058A9" points="12.6,1.8 14.4,0 16.3,1.8 14.4,3.7 		"/>
		<g>
			<polygon fill-rule="evenodd" clip-rule="evenodd" fill="#0058A9" points="12.6,7.9 14.4,6.1 16.2,7.9 14.4,9.8 			"/>
			<g>
				<defs>
					<rect id="SVGID_1_" x="12.5" y="6.1" width="3.7" height="3.7"/>
				</defs>
				<clipPath id="SVGID_2_">
					<use xlink:href="#SVGID_1_"  overflow="visible"/>
				</clipPath>
				<g clip-path="url(#SVGID_2_)">
					
						<image overflow="visible" width="16" height="16" xlink:href="61201680.jpg"  transform="matrix(0.2335 0 0 0.2294 12.5459 6.101)">
					</image>
				</g>
			</g>
		</g>
		<g>
			<defs>
				<rect id="SVGID_3_" x="12.6" width="3.7" height="3.7"/>
			</defs>
			<clipPath id="SVGID_4_">
				<use xlink:href="#SVGID_3_"  overflow="visible"/>
			</clipPath>
			<g transform="matrix(1 0 0 1 0 0)" clip-path="url(#SVGID_4_)">
				<image overflow="visible" width="16" height="16" xlink:href="61201681.jpg"  transform="matrix(0.2304 0 0 0.2294 12.5957 0)">
				</image>
			</g>
		</g>
		<g>
			<defs>
				<rect id="SVGID_5_" x="9.5" y="3" width="3.7" height="3.7"/>
			</defs>
			<clipPath id="SVGID_6_">
				<use xlink:href="#SVGID_5_"  overflow="visible"/>
			</clipPath>
			<g transform="matrix(1 0 0 1 0 0)" clip-path="url(#SVGID_6_)">
				
					<image overflow="visible" width="16" height="16" xlink:href="61201687.jpg"  transform="matrix(0.2304 0 0 0.2325 9.4578 3.0257)">
				</image>
			</g>
		</g>
	</g>
</g>
</svg>
