<?xml version="1.0" encoding="UTF-8"?>
<!DOCTYPE svg PUBLIC "-//W3C//DTD SVG 1.1//EN" "http://www.w3.org/Graphics/SVG/1.1/DTD/svg11.dtd">
<!-- Creator: CorelDRAW 2019 (64-Bit) -->
<svg xmlns="http://www.w3.org/2000/svg" xml:space="preserve" width="86px" height="48px" version="1.1" style="shape-rendering:geometricPrecision; text-rendering:geometricPrecision; image-rendering:optimizeQuality; fill-rule:evenodd; clip-rule:evenodd"
viewBox="0 0 86 48"
 xmlns:xlink="http://www.w3.org/1999/xlink">
 <defs>
  <style type="text/css">
   <![CDATA[
    .fil1 {fill:#FEFEFE}
    .fil0 {fill:#FEFEFE;fill-rule:nonzero}
   ]]>
  </style>
 </defs>
 <g id="Слой_x0020_1">
  <metadata id="CorelCorpID_0Corel-Layer"/>
  <g id="_1895534483632">
   <path class="fil0" d="M5.17 41.35l-2.96 0 0 6.27 -1.51 0 0 -17.67 4.89 0 0.02 0.03c0.44,1 0.78,1.94 1.01,2.84 0.22,0.89 0.33,1.73 0.33,2.52 0,0.88 -0.14,1.83 -0.43,2.82 -0.29,1 -0.72,2.05 -1.3,3.16l-0.01 0.03 -0.04 0zm0.3 -6.08c0,-0.63 -0.07,-1.28 -0.23,-1.94 -0.15,-0.65 -0.37,-1.32 -0.67,-2.01l-2.36 0 0 8.66 2.05 0c0.4,-0.81 0.7,-1.6 0.91,-2.38 0.2,-0.79 0.3,-1.57 0.3,-2.33zm7.46 0.98c0.57,1.11 1,2.16 1.29,3.16 0.29,1 0.44,1.94 0.44,2.82 0,0.79 -0.12,1.63 -0.34,2.53 -0.23,0.89 -0.56,1.83 -1.01,2.83l-0.02 0.03 -4.89 0 0 -17.67 1.51 0 0 6.27 3 0 0.02 0.03zm0.24 6.05c0,-0.76 -0.1,-1.54 -0.3,-2.33 -0.2,-0.78 -0.5,-1.57 -0.91,-2.38l-2.05 0 0 8.66 2.37 0c0.29,-0.69 0.52,-1.36 0.67,-2.01 0.15,-0.66 0.22,-1.31 0.22,-1.94zm3.87 5.32l-1.45 0 0 -17.67 1.51 0 0 17.67 -0.06 0zm3.06 -16.3l0 4.9 3 0 0.01 0.03c0.58,1.11 1.01,2.16 1.3,3.16 0.29,1 0.43,1.94 0.43,2.82 0,0.79 -0.11,1.63 -0.33,2.53 -0.23,0.89 -0.57,1.83 -1.01,2.83l-0.02 0.03 -4.89 0 0 -17.67 5.29 0 0 4.04 -1.5 0 0 -2.67 -2.28 0zm3.26 10.98c0,-0.76 -0.1,-1.54 -0.3,-2.33 -0.21,-0.78 -0.51,-1.57 -0.91,-2.38l-2.05 0 0 8.66 2.36 0c0.3,-0.69 0.52,-1.36 0.67,-2.01 0.16,-0.66 0.23,-1.31 0.23,-1.94zm9.46 2.64c0,0.43 -0.01,0.87 -0.02,1.31 -0.01,0.44 -0.03,0.88 -0.05,1.32l0 0.05 -1.46 0 0 -2.48c0,-0.89 -0.02,-1.81 -0.06,-2.76 -0.04,-0.93 -0.09,-1.91 -0.16,-2.91l-3.03 0c-0.17,1.75 -0.26,4.44 -0.26,8.09l0 0.06 -1.44 0 0 -0.05c-0.02,-0.56 -0.04,-1.08 -0.05,-1.59 -0.01,-0.5 -0.02,-0.97 -0.02,-1.42 0,-2.36 0.16,-4.75 0.49,-7.18 0.32,-2.42 0.81,-4.88 1.46,-7.36l0.01 -0.05 2.62 0 0.02 0.05c0.64,2.51 1.13,5.02 1.46,7.5 0.32,2.49 0.49,4.97 0.49,7.42zm-1.92 -6.84c-0.13,-1.11 -0.3,-2.23 -0.5,-3.35 -0.2,-1.13 -0.44,-2.26 -0.71,-3.41l-0.29 0c-0.25,1.01 -0.48,2.08 -0.68,3.21 -0.21,1.12 -0.39,2.31 -0.55,3.55l2.73 0zm8.85 9.47c-0.05,-0.51 -0.09,-1 -0.12,-1.47 -0.02,-0.47 -0.04,-0.93 -0.04,-1.36 0,-1.47 0.15,-2.86 0.45,-4.19 0.3,-1.31 0.74,-2.55 1.33,-3.73 -0.41,-0.51 -0.73,-1.04 -0.94,-1.56 -0.21,-0.54 -0.32,-1.08 -0.32,-1.62 0,-1.06 0.5,-2.28 1.49,-3.67l0.02 -0.02 4.43 0 0 17.67 -1.51 0 0 -10.03 -1.9 0c-0.5,1.05 -0.88,2.15 -1.13,3.32 -0.26,1.18 -0.39,2.42 -0.39,3.72 0,0.34 0.01,0.75 0.03,1.23 0.02,0.49 0.05,1.06 0.08,1.7l0.01 0.06 -1.48 0 -0.01 -0.05zm1.86 -13.96c0,0.85 0.38,1.72 1.11,2.61l1.82 0 0 -4.9 -2.12 0c-0.27,0.4 -0.47,0.79 -0.6,1.17 -0.14,0.38 -0.21,0.76 -0.21,1.12zm12.27 11.22c0,0.72 -0.05,1.63 -0.15,2.74l-0.01 0.05 -1.46 0 0.01 -0.06c0.03,-0.6 0.06,-1.13 0.08,-1.58 0.02,-0.46 0.03,-0.85 0.03,-1.17 0,-1.13 -0.11,-2.29 -0.32,-3.5 -0.21,-1.2 -0.52,-2.44 -0.94,-3.72l-2.1 0c0,0.14 -0.01,0.3 -0.01,0.48 -0.01,0.2 -0.01,0.44 -0.01,0.72 0,3.42 0.24,6.35 0.72,8.76l0.01 0.07 -1.55 0 -0.01 -0.05c-0.22,-1.55 -0.39,-3.06 -0.5,-4.53 -0.12,-1.46 -0.17,-2.88 -0.17,-4.25 0,-1.38 0.05,-2.8 0.17,-4.26 0.11,-1.47 0.28,-2.98 0.5,-4.53l0.01 -0.05 1.55 0 -0.01 0.07c-0.18,0.87 -0.33,1.83 -0.44,2.87 -0.11,1.03 -0.18,2.14 -0.23,3.33l1.76 0c0.41,-0.97 0.72,-1.97 0.94,-3 0.22,-1.04 0.34,-2.11 0.36,-3.21l0 -0.06 1.48 0 0 0.06c-0.02,1.15 -0.14,2.27 -0.36,3.35 -0.21,1.07 -0.52,2.1 -0.93,3.1 0.53,1.52 0.92,2.98 1.19,4.37 0.26,1.4 0.39,2.74 0.39,4zm2.85 2.71c0.24,-0.55 0.48,-1.13 0.71,-1.75 0.22,-0.62 0.44,-1.28 0.64,-1.98 -0.24,-0.47 -0.47,-0.97 -0.68,-1.49 -0.22,-0.54 -0.43,-1.11 -0.62,-1.7 -0.19,-0.6 -0.36,-1.21 -0.52,-1.82 -0.16,-0.61 -0.3,-1.22 -0.43,-1.85 -0.26,-1.25 -0.46,-2.48 -0.61,-3.68 -0.15,-1.2 -0.24,-2.29 -0.27,-3.26l0 -0.06 1.42 0 0 0.05c0.03,0.42 0.07,0.85 0.11,1.31 0.05,0.45 0.11,0.93 0.17,1.44 0.06,0.52 0.13,1.03 0.21,1.54 0.08,0.52 0.17,1.04 0.27,1.57 0.1,0.53 0.2,1.06 0.32,1.58 0.11,0.52 0.23,1.03 0.36,1.53 0.13,0.51 0.27,0.99 0.43,1.44 0.13,0.4 0.28,0.77 0.43,1.13 0.11,-0.43 0.21,-0.87 0.31,-1.33 0.12,-0.52 0.23,-1.07 0.34,-1.64 0.11,-0.57 0.22,-1.13 0.31,-1.68 0.09,-0.56 0.18,-1.11 0.25,-1.66 0.08,-0.55 0.14,-1.08 0.19,-1.58 0.05,-0.5 0.09,-0.99 0.12,-1.45 0.03,-0.46 0.05,-0.88 0.05,-1.24 0,-0.36 -0.02,-0.68 -0.05,-0.95l0 -0.06 1.51 0.02 0 0.06c0.01,0.76 0.01,1.52 -0.03,2.27 -0.03,0.75 -0.08,1.49 -0.16,2.23 -0.08,0.73 -0.18,1.46 -0.29,2.2 -0.12,0.73 -0.25,1.45 -0.41,2.18 -0.15,0.72 -0.32,1.45 -0.51,2.17 -0.18,0.72 -0.39,1.44 -0.61,2.17 -0.22,0.72 -0.45,1.45 -0.68,2.16 -0.24,0.72 -0.49,1.44 -0.74,2.17l-0.01 0.04 -1.57 0 0.04 -0.08zm12.68 -9.93l-1.42 0 0 -0.05c-0.05,-2.24 -0.21,-4.31 -0.49,-6.24l-0.58 0 0 16.3 -1.51 0 0 -16.3 -0.56 0c-0.13,0.98 -0.24,1.99 -0.31,3.02 -0.08,1.05 -0.13,2.12 -0.15,3.22l-0.01 0.05 -1.5 0 0 -0.06c0.05,-2.46 0.26,-4.98 0.65,-7.55l0.01 -0.05 5.27 0 0.01 0.05c0.39,2.7 0.6,5.22 0.65,7.55l0 0.06 -0.06 0zm6.5 0.55l-0.04 -1.67c-0.01,-0.27 -0.02,-0.54 -0.03,-0.8l-0.02 -0.47 -3.22 10.56 0.07 0.48 0.07 0.47c0.04,0.29 0.09,0.57 0.15,0.82l0.02 0.07 -1.51 0 -0.01 -0.05c-0.22,-1.55 -0.39,-3.06 -0.5,-4.53 -0.12,-1.46 -0.17,-2.88 -0.17,-4.25 0,-2.74 0.22,-5.67 0.67,-8.79l0.01 -0.05 1.55 0 -0.01 0.07c-0.11,0.54 -0.21,1.12 -0.3,1.73 -0.09,0.62 -0.17,1.26 -0.24,1.94 -0.07,0.67 -0.12,1.39 -0.16,2.13 -0.03,0.75 -0.06,1.53 -0.06,2.34 0,0.36 0,0.71 0.01,1.06 0,0.36 0.01,0.73 0.02,1.1 0.01,0.36 0.03,0.73 0.04,1.1 0.01,0.26 0.03,0.52 0.04,0.78l3.19 -10.36 -0.06 -0.47c-0.03,-0.16 -0.05,-0.31 -0.08,-0.46l-0.08 -0.44 -0.1 -0.52 1.58 0 0 0.05c0.11,0.75 0.2,1.49 0.28,2.23 0.08,0.74 0.15,1.47 0.21,2.2 0.05,0.72 0.09,1.45 0.12,2.18 0.03,0.73 0.04,1.45 0.04,2.18 0,0.72 -0.01,1.44 -0.04,2.17 -0.03,0.73 -0.07,1.46 -0.12,2.18 -0.06,0.73 -0.13,1.46 -0.21,2.2 -0.08,0.74 -0.17,1.49 -0.28,2.23l0 0.05 -1.54 0 0.02 -0.07c0.05,-0.27 0.1,-0.56 0.15,-0.88 0.05,-0.32 0.09,-0.67 0.14,-1.04 0.04,-0.38 0.08,-0.76 0.12,-1.15 0.03,-0.39 0.06,-0.8 0.09,-1.22 0.03,-0.42 0.05,-0.84 0.07,-1.27 0.03,-0.43 0.05,-0.87 0.07,-1.3 0.01,-0.44 0.03,-0.88 0.04,-1.3 0.01,-0.41 0.01,-0.83 0.01,-1.23zm7.9 0l-0.04 -1.67c-0.01,-0.27 -0.02,-0.54 -0.03,-0.8l-0.02 -0.47 -3.21 10.56 0.06 0.48 0.07 0.47c0.04,0.29 0.1,0.57 0.16,0.82l0.01 0.07 -1.51 0 -0.01 -0.05c-0.22,-1.55 -0.39,-3.06 -0.5,-4.53 -0.11,-1.46 -0.17,-2.88 -0.17,-4.25 0,-2.74 0.22,-5.67 0.67,-8.79l0.01 -0.05 1.56 0 -0.02 0.07c-0.11,0.54 -0.21,1.12 -0.3,1.73 -0.09,0.62 -0.17,1.26 -0.24,1.94 -0.06,0.67 -0.11,1.39 -0.15,2.13 -0.04,0.75 -0.06,1.53 -0.07,2.34 0,0.36 0,0.71 0.01,1.06 0,0.36 0.01,0.73 0.02,1.1 0.02,0.36 0.03,0.73 0.05,1.1 0.01,0.26 0.02,0.52 0.04,0.78l3.19 -10.36 -0.07 -0.47c-0.02,-0.16 -0.05,-0.31 -0.08,-0.46l-0.08 -0.44 -0.1 -0.52 1.58 0 0.01 0.05c0.1,0.75 0.19,1.49 0.28,2.23 0.08,0.74 0.14,1.47 0.2,2.2 0.06,0.72 0.1,1.45 0.13,2.18 0.02,0.73 0.04,1.45 0.04,2.18 0,0.72 -0.02,1.44 -0.04,2.17 -0.03,0.73 -0.07,1.46 -0.13,2.18 -0.06,0.73 -0.12,1.46 -0.2,2.2 -0.09,0.74 -0.18,1.49 -0.28,2.23l-0.01 0.05 -1.53 0 0.01 -0.07c0.05,-0.27 0.1,-0.56 0.15,-0.88 0.05,-0.32 0.1,-0.67 0.14,-1.04 0.05,-0.38 0.09,-0.76 0.12,-1.15 0.04,-0.39 0.07,-0.8 0.09,-1.22 0.03,-0.42 0.06,-0.84 0.08,-1.27 0.02,-0.43 0.04,-0.87 0.06,-1.3 0.02,-0.44 0.03,-0.88 0.04,-1.3 0.01,-0.41 0.01,-0.83 0.01,-1.23z"/>
   <polygon class="fil1" points="41.67,6.76 48.05,0.38 54.42,6.76 48.05,13.14 "/>
   <path class="fil1" d="M48.34 13.27l6.38 -6.37 6.37 6.37 -6.37 6.38 -6.38 -6.38zm6.38 -1.62c0.89,0 1.62,0.73 1.62,1.62 0,0.9 -0.73,1.63 -1.62,1.63 -0.9,0 -1.63,-0.73 -1.63,-1.63 0,-0.89 0.73,-1.62 1.63,-1.62z"/>
   <polygon class="fil1" points="35.02,13.26 41.39,6.88 47.77,13.26 41.39,19.63 "/>
   <polygon class="fil1" points="41.69,19.77 48.06,13.39 54.44,19.77 48.06,26.15 "/>
   <polygon class="fil1" points="24.91,13.26 29.69,8.47 34.47,13.26 29.69,18.04 "/>
   <polygon class="fil1" points="33.07,5.23 37.86,0.44 42.64,5.23 37.86,10.01 "/>
   <polygon class="fil1" points="32.98,21.21 37.76,16.43 42.55,21.21 37.76,26 "/>
  </g>
 </g>
</svg>
