<?xml version="1.0" encoding="utf-8"?>
<!-- Generator: Adobe Illustrator 15.1.0, SVG Export Plug-In . SVG Version: 6.00 Build 0)  -->
<!DOCTYPE svg PUBLIC "-//W3C//DTD SVG 1.1//EN" "http://www.w3.org/Graphics/SVG/1.1/DTD/svg11.dtd">
<svg version="1.1" id="Слой_1" xmlns="http://www.w3.org/2000/svg" xmlns:xlink="http://www.w3.org/1999/xlink" x="0px" y="0px"
	 width="32.4px" height="21.474px" viewBox="0 0 32.4 21.474" enable-background="new 0 0 32.4 21.474" xml:space="preserve">
<g>
	<polygon fill="#FFFFFF" points="16.2,0 2.316,13.75 30.483,13.75 	"/>
	<g>
		<path fill-rule="evenodd" clip-rule="evenodd" fill="#0058A9" d="M1.712,19.108H0.577V21.5H0v-6.74h1.872l0.006,0.014
			c0.172,0.38,0.301,0.739,0.387,1.079c0.086,0.341,0.129,0.661,0.129,0.962c0,0.338-0.055,0.697-0.166,1.078
			c-0.111,0.38-0.276,0.782-0.497,1.204l-0.006,0.012H1.712L1.712,19.108z M1.827,16.789c0-0.24-0.029-0.487-0.087-0.74
			c-0.058-0.249-0.143-0.505-0.256-0.766H0.577v3.303h0.787c0.153-0.308,0.269-0.61,0.346-0.908
			C1.788,17.377,1.827,17.08,1.827,16.789L1.827,16.789z M4.682,17.163c0.22,0.423,0.386,0.824,0.497,1.204
			c0.111,0.381,0.166,0.74,0.166,1.078c0,0.3-0.043,0.621-0.129,0.962c-0.086,0.34-0.215,0.7-0.387,1.079L4.822,21.5H2.95v-6.74
			h0.577v2.392h1.149L4.682,17.163L4.682,17.163z M4.776,19.471c0-0.291-0.039-0.588-0.117-0.889
			c-0.077-0.298-0.192-0.601-0.346-0.908H3.526v3.303h0.906c0.113-0.261,0.199-0.517,0.256-0.766
			C4.748,19.958,4.776,19.711,4.776,19.471L4.776,19.471z M6.256,21.5H5.703v-6.74h0.576v6.74H6.256L6.256,21.5z M7.428,15.283
			v1.868h1.149l0.006,0.012c0.221,0.423,0.387,0.824,0.497,1.204c0.111,0.381,0.166,0.74,0.166,1.078c0,0.3-0.043,0.621-0.129,0.962
			c-0.086,0.34-0.215,0.7-0.387,1.079L8.724,21.5H6.852v-6.74h2.025v1.539H8.301v-1.016H7.428L7.428,15.283z M8.678,19.471
			c0-0.291-0.039-0.588-0.117-0.889c-0.077-0.298-0.192-0.601-0.346-0.908H7.428v3.303h0.906c0.113-0.261,0.199-0.517,0.256-0.766
			C8.649,19.958,8.678,19.711,8.678,19.471L8.678,19.471z M12.299,20.479c0,0.164-0.002,0.33-0.007,0.498
			c-0.004,0.167-0.011,0.335-0.019,0.502L12.272,21.5h-0.558v-0.944c0-0.34-0.007-0.691-0.021-1.055
			c-0.014-0.356-0.035-0.727-0.063-1.109h-1.16c-0.067,0.665-0.101,1.694-0.101,3.086V21.5H9.82l-0.001-0.021
			c-0.009-0.21-0.015-0.411-0.019-0.603c-0.004-0.192-0.007-0.373-0.007-0.543c0-0.9,0.063-1.813,0.187-2.737
			s0.311-1.861,0.56-2.811l0.004-0.017h1.003l0.004,0.017c0.249,0.96,0.436,1.915,0.56,2.863
			C12.237,18.598,12.299,19.541,12.299,20.479L12.299,20.479z M11.565,17.868c-0.051-0.424-0.115-0.851-0.192-1.278
			c-0.077-0.43-0.168-0.862-0.272-1.299h-0.11c-0.096,0.385-0.183,0.792-0.261,1.223c-0.079,0.429-0.149,0.88-0.211,1.354H11.565
			L11.565,17.868z M14.956,21.479c-0.02-0.193-0.035-0.381-0.045-0.56c-0.01-0.181-0.015-0.354-0.015-0.519
			c0-0.56,0.058-1.092,0.172-1.598c0.114-0.5,0.284-0.975,0.51-1.423c-0.16-0.197-0.28-0.396-0.361-0.597
			c-0.083-0.204-0.124-0.411-0.124-0.618c0-0.403,0.19-0.869,0.57-1.396l0.007-0.01h1.697v6.74h-0.576v-3.826h-0.727
			c-0.193,0.399-0.339,0.821-0.436,1.266c-0.098,0.449-0.147,0.923-0.147,1.42c0,0.128,0.003,0.285,0.01,0.471
			c0.007,0.186,0.018,0.401,0.032,0.646l0.001,0.023h-0.567L14.956,21.479L14.956,21.479z M15.669,16.157
			c0,0.322,0.142,0.653,0.425,0.994h0.696v-1.868h-0.814c-0.101,0.15-0.178,0.299-0.229,0.443
			C15.695,15.874,15.669,16.018,15.669,16.157L15.669,16.157z M20.369,20.436c0,0.273-0.021,0.622-0.061,1.044L20.306,21.5h-0.559
			l0.002-0.023c0.014-0.229,0.024-0.43,0.032-0.604c0.007-0.174,0.011-0.322,0.011-0.444c0-0.43-0.041-0.874-0.122-1.336
			c-0.08-0.456-0.201-0.929-0.361-1.418h-0.803c-0.002,0.053-0.004,0.114-0.005,0.183C18.5,17.935,18.5,18.025,18.5,18.13
			c0,1.308,0.091,2.423,0.273,3.344l0.005,0.026h-0.595l-0.003-0.02c-0.086-0.593-0.15-1.168-0.193-1.727s-0.064-1.1-0.064-1.624
			s0.021-1.065,0.064-1.624s0.107-1.134,0.193-1.727l0.003-0.02h0.596l-0.006,0.027c-0.068,0.331-0.124,0.697-0.167,1.095
			c-0.042,0.392-0.071,0.814-0.089,1.27h0.674c0.156-0.37,0.276-0.752,0.359-1.145c0.084-0.396,0.131-0.805,0.139-1.225l0.001-0.022
			h0.567v0.022c-0.009,0.439-0.055,0.865-0.138,1.276c-0.083,0.409-0.202,0.804-0.358,1.184c0.202,0.582,0.354,1.139,0.455,1.669
			C20.318,19.445,20.369,19.953,20.369,20.436L20.369,20.436z M21.458,21.469c0.095-0.208,0.186-0.431,0.271-0.669
			c0.086-0.235,0.169-0.487,0.248-0.755c-0.093-0.177-0.181-0.367-0.263-0.568c-0.084-0.204-0.163-0.42-0.236-0.648
			c-0.073-0.228-0.14-0.459-0.2-0.691c-0.062-0.232-0.116-0.469-0.165-0.707c-0.097-0.477-0.174-0.944-0.231-1.402
			c-0.058-0.459-0.092-0.874-0.103-1.245l-0.001-0.022h0.541l0.002,0.021c0.011,0.158,0.026,0.324,0.044,0.497
			s0.038,0.357,0.063,0.553s0.052,0.391,0.083,0.586c0.03,0.197,0.064,0.396,0.102,0.6c0.037,0.201,0.077,0.401,0.121,0.6
			c0.043,0.198,0.091,0.394,0.14,0.586c0.05,0.193,0.104,0.376,0.164,0.549c0.052,0.151,0.106,0.294,0.164,0.43
			c0.041-0.163,0.081-0.332,0.12-0.508c0.043-0.197,0.087-0.405,0.13-0.623c0.043-0.217,0.083-0.432,0.118-0.644
			s0.067-0.423,0.097-0.632c0.028-0.209,0.053-0.41,0.072-0.603c0.021-0.191,0.035-0.376,0.047-0.553s0.018-0.334,0.018-0.474
			c0-0.139-0.006-0.259-0.018-0.359l-0.003-0.025l0.579,0.009v0.021c0.006,0.291,0.003,0.579-0.009,0.865
			c-0.013,0.286-0.033,0.569-0.063,0.851c-0.03,0.28-0.067,0.56-0.111,0.839c-0.045,0.278-0.097,0.556-0.155,0.832
			s-0.123,0.554-0.195,0.829c-0.071,0.274-0.149,0.55-0.233,0.825c-0.086,0.278-0.173,0.554-0.263,0.826
			c-0.091,0.274-0.185,0.55-0.282,0.828L22.042,21.5h-0.599L21.458,21.469L21.458,21.469z M26.315,17.683H25.77l-0.001-0.022
			c-0.017-0.851-0.079-1.644-0.186-2.377H25.36V21.5h-0.577v-6.217h-0.215c-0.05,0.374-0.09,0.758-0.12,1.151
			c-0.029,0.4-0.049,0.809-0.058,1.226v0.022h-0.576V17.66c0.018-0.941,0.101-1.901,0.249-2.882l0.003-0.019h2.02l0.003,0.02
			c0.148,1.03,0.231,1.991,0.249,2.881v0.022H26.315L26.315,17.683z M28.804,17.891l-0.017-0.636
			c-0.003-0.103-0.007-0.206-0.011-0.308l-0.008-0.176l-1.231,4.024l0.025,0.186l0.026,0.177c0.017,0.113,0.036,0.219,0.06,0.314
			l0.006,0.027h-0.579l-0.003-0.02c-0.086-0.592-0.15-1.168-0.193-1.727c-0.042-0.559-0.064-1.1-0.064-1.624
			c0-1.043,0.086-2.16,0.258-3.351l0.003-0.02h0.596l-0.006,0.027c-0.042,0.206-0.081,0.426-0.115,0.66s-0.064,0.48-0.09,0.737
			c-0.025,0.259-0.046,0.53-0.061,0.815c-0.014,0.284-0.022,0.581-0.025,0.891c0,0.136,0.001,0.271,0.003,0.406
			c0.003,0.137,0.006,0.276,0.01,0.418c0.005,0.14,0.01,0.28,0.017,0.421c0.004,0.099,0.01,0.197,0.015,0.296l1.223-3.951
			l-0.025-0.178c-0.01-0.062-0.02-0.119-0.029-0.175l-0.031-0.171l-0.038-0.197h0.604l0.003,0.02c0.04,0.284,0.076,0.567,0.106,0.85
			c0.031,0.282,0.058,0.562,0.078,0.838c0.021,0.277,0.038,0.555,0.049,0.833c0.011,0.277,0.016,0.555,0.016,0.83
			s-0.005,0.553-0.016,0.83c-0.011,0.278-0.027,0.556-0.049,0.833c-0.021,0.276-0.047,0.556-0.078,0.839
			c-0.03,0.281-0.066,0.564-0.106,0.849l-0.003,0.02h-0.586l0.005-0.026c0.02-0.102,0.039-0.214,0.058-0.337
			s0.037-0.255,0.054-0.396c0.018-0.144,0.032-0.29,0.046-0.438c0.014-0.149,0.025-0.304,0.035-0.465
			c0.01-0.16,0.02-0.321,0.028-0.484c0.008-0.165,0.017-0.33,0.023-0.497c0.007-0.169,0.013-0.333,0.016-0.493
			C28.803,18.203,28.804,18.046,28.804,17.891L28.804,17.891z M31.833,17.891l-0.018-0.636c-0.003-0.103-0.007-0.206-0.011-0.308
			l-0.008-0.176l-1.231,4.024l0.025,0.186l0.025,0.177c0.018,0.113,0.037,0.219,0.06,0.314l0.007,0.027h-0.579L30.1,21.48
			c-0.086-0.592-0.15-1.168-0.193-1.727s-0.064-1.1-0.064-1.624c0-1.043,0.086-2.16,0.258-3.351l0.003-0.02h0.596l-0.006,0.027
			c-0.043,0.206-0.081,0.426-0.115,0.66c-0.035,0.234-0.064,0.48-0.09,0.737c-0.025,0.259-0.046,0.53-0.061,0.815
			c-0.014,0.284-0.022,0.581-0.025,0.891c0,0.136,0.001,0.271,0.003,0.406c0.002,0.137,0.006,0.276,0.01,0.418
			c0.004,0.14,0.01,0.28,0.017,0.421c0.004,0.099,0.009,0.197,0.015,0.296l1.223-3.951l-0.026-0.178
			c-0.009-0.062-0.019-0.119-0.028-0.175l-0.031-0.171l-0.038-0.197h0.604l0.003,0.02c0.04,0.284,0.075,0.567,0.106,0.85
			c0.03,0.282,0.057,0.562,0.078,0.838c0.021,0.277,0.037,0.555,0.048,0.833c0.011,0.277,0.017,0.555,0.017,0.83
			s-0.006,0.553-0.017,0.83c-0.011,0.278-0.026,0.556-0.048,0.833c-0.021,0.276-0.048,0.556-0.078,0.839
			c-0.031,0.281-0.066,0.564-0.106,0.849l-0.003,0.02h-0.587l0.006-0.026c0.02-0.102,0.039-0.214,0.058-0.337
			s0.036-0.255,0.054-0.396c0.017-0.144,0.032-0.29,0.046-0.438c0.013-0.149,0.025-0.304,0.035-0.465
			c0.01-0.16,0.02-0.321,0.027-0.484c0.009-0.165,0.017-0.33,0.024-0.497c0.007-0.169,0.012-0.333,0.016-0.493
			C31.831,18.203,31.833,18.046,31.833,17.891z"/>
		<g>
			<polygon fill-rule="evenodd" clip-rule="evenodd" fill="#00BEF3" points="15.602,5.972 18.044,3.539 20.488,5.972 18.044,8.405 
							"/>
			<path fill-rule="evenodd" clip-rule="evenodd" fill="#008DD2" d="M18.039,8.399l2.442-2.433l2.443,2.433l-2.443,2.433
				L18.039,8.399L18.039,8.399z M20.482,7.78c-0.344,0-0.622,0.277-0.622,0.619s0.278,0.619,0.622,0.619
				c0.343,0,0.621-0.277,0.621-0.619S20.825,7.78,20.482,7.78z"/>
			<polygon fill-rule="evenodd" clip-rule="evenodd" fill="#008DD2" points="13.171,8.392 15.615,5.959 18.057,8.392 15.615,10.825 
							"/>
			<polygon fill-rule="evenodd" clip-rule="evenodd" fill="#0058A9" points="15.608,10.819 18.051,8.386 20.494,10.819 
				18.051,13.252 			"/>
			<polygon fill-rule="evenodd" clip-rule="evenodd" fill="#0058A9" points="9.477,8.392 11.309,6.568 13.141,8.392 11.309,10.217 
							"/>
			<polygon fill-rule="evenodd" clip-rule="evenodd" fill="#0058A9" points="12.604,5.33 14.436,3.505 16.268,5.33 14.436,7.154 			
				"/>
			<g>
				<polygon fill-rule="evenodd" clip-rule="evenodd" fill="#0058A9" points="12.568,11.426 14.4,9.602 16.232,11.426 14.4,13.251 
									"/>
				<g>
					<defs>
						<rect id="SVGID_1_" x="12.546" y="9.601" width="3.735" height="3.67"/>
					</defs>
					<clipPath id="SVGID_2_">
						<use xlink:href="#SVGID_1_"  overflow="visible"/>
					</clipPath>
					<g transform="matrix(1 0 0 1 -6.345668e-007 -3.774381e-007)" clip-path="url(#SVGID_2_)">
						
							<image overflow="visible" width="16" height="16" xlink:href="CB4D7FB3.jpg"  transform="matrix(0.2335 0 0 0.2294 12.5459 9.6011)">
						</image>
					</g>
				</g>
			</g>
			<g>
				<defs>
					<rect id="SVGID_3_" x="12.596" y="3.5" width="3.686" height="3.67"/>
				</defs>
				<clipPath id="SVGID_4_">
					<use xlink:href="#SVGID_3_"  overflow="visible"/>
				</clipPath>
				<g transform="matrix(1 0 0 1 3.140218e-007 -1.125918e-007)" clip-path="url(#SVGID_4_)">
					
						<image overflow="visible" width="16" height="16" xlink:href="CB4D7FB1.jpg"  transform="matrix(0.2304 0 0 0.2294 12.5957 3.5)">
					</image>
				</g>
			</g>
			<g>
				<defs>
					<rect id="SVGID_5_" x="9.458" y="6.526" width="3.686" height="3.72"/>
				</defs>
				<clipPath id="SVGID_6_">
					<use xlink:href="#SVGID_5_"  overflow="visible"/>
				</clipPath>
				<g transform="matrix(1 0 0 1 -2.281663e-007 -8.970346e-008)" clip-path="url(#SVGID_6_)">
					
						<image overflow="visible" width="16" height="16" xlink:href="CB4D7FB7.jpg"  transform="matrix(0.2304 0 0 0.2325 9.4575 6.5259)">
					</image>
				</g>
			</g>
		</g>
	</g>
</g>
</svg>
