<?xml version="1.0" encoding="UTF-8"?>
<!DOCTYPE svg PUBLIC "-//W3C//DTD SVG 1.1//EN" "http://www.w3.org/Graphics/SVG/1.1/DTD/svg11.dtd">
<!-- Creator: CorelDRAW 2019 (64-Bit) -->
<svg xmlns="http://www.w3.org/2000/svg" xml:space="preserve" width="32px" height="32px" version="1.1" style="shape-rendering:geometricPrecision; text-rendering:geometricPrecision; image-rendering:optimizeQuality; fill-rule:evenodd; clip-rule:evenodd"
viewBox="0 0 32 32"
 xmlns:xlink="http://www.w3.org/1999/xlink"
 xmlns:sketch="http://www.bohemiancoding.com/sketch/ns">
 <defs>
  <style type="text/css">
   <![CDATA[
    .fil0 {fill:#4A4A4A}
   ]]>
  </style>
 </defs>
 <g id="Слой_x0020_1">
  <metadata id="CorelCorpID_0Corel-Layer"/>
  <g id="Page-1">
   <path id="whatsup" class="fil0" d="M16.28 0c-8.4,0 -15.22,6.98 -15.22,15.59 0,2.94 0.8,5.7 2.19,8.05l-2.75 8.36 8.42 -2.76c2.19,1.23 4.69,1.94 7.36,1.94 8.41,0 15.22,-6.98 15.22,-15.59 0,-8.61 -6.81,-15.59 -15.22,-15.59l0 0zm0 28.69c-2.6,0 -5.02,-0.79 -7.04,-2.16l-4.92 1.61 1.6 -4.87c-1.53,-2.16 -2.43,-4.81 -2.43,-7.68 0,-7.23 5.74,-13.11 12.79,-13.11 7.06,0 12.8,5.88 12.8,13.11 0,7.22 -5.74,13.1 -12.8,13.1zm-3.57 -19.55c-0.24,-0.61 -0.43,-0.63 -0.81,-0.65 -0.13,0 -0.28,-0.01 -0.43,-0.01 -0.49,0 -1,0.15 -1.31,0.47 -0.37,0.39 -1.3,1.31 -1.3,3.19 0,1.88 1.33,3.69 1.52,3.95 0.19,0.25 2.61,4.17 6.37,5.77 2.94,1.24 3.82,1.13 4.49,0.98 0.97,-0.22 2.2,-0.95 2.51,-1.84 0.31,-0.9 0.31,-1.66 0.22,-1.82 -0.1,-0.16 -0.35,-0.26 -0.72,-0.45 -0.37,-0.19 -2.21,-1.11 -2.55,-1.24 -0.34,-0.13 -0.66,-0.09 -0.92,0.28 -0.36,0.52 -0.71,1.05 -1,1.36 -0.23,0.25 -0.59,0.28 -0.91,0.14 -0.41,-0.18 -1.57,-0.59 -3,-1.89 -1.11,-1.02 -1.85,-2.27 -2.07,-2.65 -0.22,-0.38 -0.02,-0.61 0.15,-0.82 0.19,-0.23 0.36,-0.4 0.55,-0.63 0.19,-0.22 0.29,-0.34 0.42,-0.59 0.12,-0.26 0.04,-0.52 -0.06,-0.71 -0.09,-0.19 -0.84,-2.07 -1.15,-2.84z"/>
  </g>
 </g>
</svg>
