<?xml version="1.0" encoding="UTF-8"?>
<!DOCTYPE svg PUBLIC "-//W3C//DTD SVG 1.1//EN" "http://www.w3.org/Graphics/SVG/1.1/DTD/svg11.dtd">
<!-- Creator: CorelDRAW 2019 (64-Bit) -->
<svg xmlns="http://www.w3.org/2000/svg" xml:space="preserve" width="32px" height="32px" version="1.1" style="shape-rendering:geometricPrecision; text-rendering:geometricPrecision; image-rendering:optimizeQuality; fill-rule:evenodd; clip-rule:evenodd"
viewBox="0 0 32 32"
 xmlns:xlink="http://www.w3.org/1999/xlink"
 enable-background="new 0 0 512 512">
 <defs>
  <style type="text/css">
   <![CDATA[
    .fil0 {fill:#231F20}
   ]]>
  </style>
 </defs>
 <g id="Слой_x0020_1">
  <metadata id="CorelCorpID_0Corel-Layer"/>
  <g id="_1895415608048">
   <path class="fil0" d="M15.99 11.49c-2.48,0 -4.5,2.02 -4.5,4.5 0,2.48 2.02,4.51 4.5,4.51 2.48,0 4.51,-2.03 4.51,-4.51 0,-2.48 -2.03,-4.5 -4.51,-4.5z"/>
   <path class="fil0" d="M26.45 0l-20.92 0c-3.05,0 -5.53,2.48 -5.53,5.53l0 20.94c0,3.05 2.48,5.53 5.53,5.53l20.94 0c3.05,0 5.53,-2.48 5.53,-5.53l0 -20.94c-0.02,-3.05 -2.5,-5.53 -5.55,-5.53zm-10.46 25.24c-5.09,0 -9.24,-4.14 -9.24,-9.25 0,-5.1 4.14,-9.24 9.24,-9.24 5.11,0 9.25,4.14 9.25,9.24 0,5.11 -4.16,9.25 -9.25,9.25zm12.63 -19.58c0,1.26 -1.03,2.29 -2.29,2.29l0 0c-1.27,0 -2.29,-1.03 -2.29,-2.29l0 0c0,-1.27 1.02,-2.29 2.29,-2.29l0 0c1.26,0 2.29,1.02 2.29,2.29l0 0z"/>
  </g>
 </g>
</svg>
